<svg width="40" height="40" viewBox="0 0 40 40" fill="none" xmlns="http://www.w3.org/2000/svg">
<path d="M14.9993 16.6667C16.8403 16.6667 18.3327 15.1743 18.3327 13.3333C18.3327 11.4924 16.8403 10 14.9993 10C13.1584 10 11.666 11.4924 11.666 13.3333C11.666 15.1743 13.1584 16.6667 14.9993 16.6667Z" stroke="#F9F9F9" stroke-width="1.5" stroke-linecap="round" stroke-linejoin="round"/>
<path d="M21.6673 3.33334H15.0007C6.66732 3.33334 3.33398 6.66668 3.33398 15V25C3.33398 33.3333 6.66732 36.6667 15.0007 36.6667H25.0007C33.334 36.6667 36.6673 33.3333 36.6673 25V16.6667" stroke="#F9F9F9" stroke-width="1.5" stroke-linecap="round" stroke-linejoin="round"/>
<path d="M26.25 8.33334H35.4167" stroke="#F9F9F9" stroke-width="1.5" stroke-linecap="round"/>
<path d="M30.834 12.9167V3.75" stroke="#F9F9F9" stroke-width="1.5" stroke-linecap="round"/>
<path d="M4.44922 31.5833L12.6659 26.0667C13.9826 25.1833 15.8826 25.2833 17.0659 26.3L17.6159 26.7833C18.9159 27.9 21.0159 27.9 22.3159 26.7833L29.2492 20.8333C30.5492 19.7167 32.6492 19.7167 33.9492 20.8333L36.6659 23.1667" stroke="#F9F9F9" stroke-width="1.5" stroke-linecap="round" stroke-linejoin="round"/>
</svg>
